<mxfile host="Electron" modified="2023-11-03T15:10:07.075Z" agent="Mozilla/5.0 (Macintosh; Intel Mac OS X 10_15_7) AppleWebKit/537.36 (KHTML, like Gecko) draw.io/22.0.3 Chrome/114.0.5735.289 Electron/25.8.4 Safari/537.36" etag="tsUbvjrwhgYKiiZRAuOU" version="22.0.3" type="device">
  <diagram name="Pagina-1" id="EgqatQL9u0jrEler3XjS">
    <mxGraphModel dx="1191" dy="876" grid="1" gridSize="10" guides="1" tooltips="1" connect="1" arrows="1" fold="1" page="1" pageScale="1" pageWidth="827" pageHeight="1169" math="0" shadow="0">
      <root>
        <mxCell id="0" />
        <mxCell id="1" parent="0" />
        <mxCell id="MMNpxaW_SGQHWkdZiyla-4" value="InterfacciaAmministratore" style="shape=umlFrame;whiteSpace=wrap;html=1;pointerEvents=0;width=161;height=35;fillColor=#ff9933;strokeWidth=2;strokeColor=#ff9933;fontStyle=1;fontColor=#FFFFFF;" parent="1" vertex="1">
          <mxGeometry x="108" y="134" width="610" height="330" as="geometry" />
        </mxCell>
        <mxCell id="MMNpxaW_SGQHWkdZiyla-5" value="" style="shape=folder;fontStyle=1;spacingTop=10;tabWidth=156;tabHeight=35;tabPosition=left;html=1;whiteSpace=wrap;fillColor=none;strokeColor=#FF9933;" parent="1" vertex="1">
          <mxGeometry x="463" y="304" width="186" height="90" as="geometry" />
        </mxCell>
        <mxCell id="MMNpxaW_SGQHWkdZiyla-6" value="ViewAggiungiProprietario" style="text;html=1;align=center;verticalAlign=middle;resizable=0;points=[];autosize=1;strokeColor=none;fillColor=none;fontSize=11;fontColor=#FF9933;fontStyle=1" parent="1" vertex="1">
          <mxGeometry x="459" y="304" width="160" height="30" as="geometry" />
        </mxCell>
        <mxCell id="MMNpxaW_SGQHWkdZiyla-7" value="" style="shape=folder;fontStyle=1;spacingTop=10;tabWidth=150;tabHeight=30;tabPosition=left;html=1;whiteSpace=wrap;fillColor=none;strokeColor=#FF9933;" parent="1" vertex="1">
          <mxGeometry x="138" y="304" width="180" height="90" as="geometry" />
        </mxCell>
        <mxCell id="MMNpxaW_SGQHWkdZiyla-8" value="ViewPasswordDimenticata" style="text;html=1;align=center;verticalAlign=middle;resizable=0;points=[];autosize=1;strokeColor=none;fillColor=none;fontSize=11;fontColor=#FF9933;fontStyle=1" parent="1" vertex="1">
          <mxGeometry x="133" y="304" width="160" height="30" as="geometry" />
        </mxCell>
        <mxCell id="MMNpxaW_SGQHWkdZiyla-9" value="" style="endArrow=open;endSize=16;endFill=0;html=1;rounded=0;entryX=0;entryY=0;entryDx=180;entryDy=60;entryPerimeter=0;exitX=0.333;exitY=1;exitDx=0;exitDy=0;exitPerimeter=0;" parent="1" source="MMNpxaW_SGQHWkdZiyla-2" target="MMNpxaW_SGQHWkdZiyla-7" edge="1">
          <mxGeometry width="160" relative="1" as="geometry">
            <mxPoint x="379" y="269" as="sourcePoint" />
            <mxPoint x="378" y="324" as="targetPoint" />
            <Array as="points">
              <mxPoint x="379" y="364" />
            </Array>
          </mxGeometry>
        </mxCell>
        <mxCell id="MMNpxaW_SGQHWkdZiyla-10" value="" style="endArrow=open;endSize=16;endFill=0;html=1;rounded=0;exitX=0.25;exitY=1;exitDx=0;exitDy=0;exitPerimeter=0;entryX=0;entryY=0;entryDx=0;entryDy=55;entryPerimeter=0;" parent="1" target="MMNpxaW_SGQHWkdZiyla-5" edge="1">
          <mxGeometry width="160" relative="1" as="geometry">
            <mxPoint x="422" y="264" as="sourcePoint" />
            <mxPoint x="388" y="359" as="targetPoint" />
            <Array as="points">
              <mxPoint x="422" y="359" />
            </Array>
          </mxGeometry>
        </mxCell>
        <mxCell id="MMNpxaW_SGQHWkdZiyla-11" value="GestioneAmministratore" style="shape=umlFrame;whiteSpace=wrap;html=1;pointerEvents=0;width=158;height=30;fillColor=#82b366;strokeWidth=2;strokeColor=#82b366;fontStyle=1;fontColor=#FFFFFF;" parent="1" vertex="1">
          <mxGeometry x="210.5" y="534" width="370" height="210" as="geometry" />
        </mxCell>
        <mxCell id="MMNpxaW_SGQHWkdZiyla-12" value="&lt;p style=&quot;margin:0px;margin-top:4px;text-align:center;&quot;&gt;&lt;b&gt;GestioneAmministratoreController&lt;/b&gt;&lt;/p&gt;&lt;hr size=&quot;1&quot;&gt;&lt;p style=&quot;margin:0px;margin-left:4px;&quot;&gt;+ aggiungi(Cliente)&lt;/p&gt;&lt;p style=&quot;margin:0px;margin-left:4px;&quot;&gt;+ aggiungi(Proprietario)&lt;/p&gt;&lt;p style=&quot;margin:0px;margin-left:4px;&quot;&gt;+ modifica(Cliente)&lt;/p&gt;&lt;p style=&quot;margin:0px;margin-left:4px;&quot;&gt;+ modificaPassword(Cliente, String)&lt;/p&gt;" style="verticalAlign=top;align=left;overflow=fill;fontSize=12;fontFamily=Helvetica;html=1;whiteSpace=wrap;" parent="1" vertex="1">
          <mxGeometry x="280.5" y="604" width="235" height="100" as="geometry" />
        </mxCell>
        <mxCell id="MMNpxaW_SGQHWkdZiyla-13" value="Use" style="endArrow=open;endSize=12;dashed=1;html=1;rounded=0;exitX=0;exitY=0;exitDx=0;exitDy=42.5;exitPerimeter=0;entryX=0;entryY=0.5;entryDx=0;entryDy=0;" parent="1" source="MMNpxaW_SGQHWkdZiyla-7" target="MMNpxaW_SGQHWkdZiyla-12" edge="1">
          <mxGeometry x="-0.1884" y="-1" width="160" relative="1" as="geometry">
            <mxPoint x="208" y="564" as="sourcePoint" />
            <mxPoint x="368" y="564" as="targetPoint" />
            <Array as="points">
              <mxPoint x="128" y="347" />
              <mxPoint x="128" y="654" />
            </Array>
            <mxPoint as="offset" />
          </mxGeometry>
        </mxCell>
        <mxCell id="MMNpxaW_SGQHWkdZiyla-14" value="Use" style="endArrow=open;endSize=12;dashed=1;html=1;rounded=0;exitX=0.546;exitY=1.01;exitDx=0;exitDy=0;exitPerimeter=0;entryX=1;entryY=0.5;entryDx=0;entryDy=0;" parent="1" source="MMNpxaW_SGQHWkdZiyla-5" target="MMNpxaW_SGQHWkdZiyla-12" edge="1">
          <mxGeometry x="-0.3166" width="160" relative="1" as="geometry">
            <mxPoint x="451" y="284" as="sourcePoint" />
            <mxPoint x="517" y="562" as="targetPoint" />
            <Array as="points">
              <mxPoint x="564" y="654" />
            </Array>
            <mxPoint as="offset" />
          </mxGeometry>
        </mxCell>
        <mxCell id="MMNpxaW_SGQHWkdZiyla-15" value="Use" style="endArrow=open;endSize=12;dashed=1;html=1;rounded=0;entryX=0.503;entryY=-0.003;entryDx=0;entryDy=0;exitX=0.468;exitY=1.005;exitDx=0;exitDy=0;exitPerimeter=0;entryPerimeter=0;" parent="1" source="MMNpxaW_SGQHWkdZiyla-2" target="MMNpxaW_SGQHWkdZiyla-12" edge="1">
          <mxGeometry x="-0.1884" y="-1" width="160" relative="1" as="geometry">
            <mxPoint x="376" y="404" as="sourcePoint" />
            <mxPoint x="328" y="674" as="targetPoint" />
            <Array as="points" />
            <mxPoint as="offset" />
          </mxGeometry>
        </mxCell>
        <mxCell id="MMNpxaW_SGQHWkdZiyla-16" value="Log" style="shape=umlFrame;whiteSpace=wrap;html=1;pointerEvents=0;width=78;height=30;strokeColor=#82b366;fillColor=#82b366;strokeWidth=2;fontStyle=1;fontColor=#FFFFFF;" parent="1" vertex="1">
          <mxGeometry x="276.75" y="854" width="237.5" height="180" as="geometry" />
        </mxCell>
        <mxCell id="MMNpxaW_SGQHWkdZiyla-17" value="&lt;p style=&quot;margin:0px;margin-top:4px;text-align:center;&quot;&gt;&lt;b&gt;Logger&lt;/b&gt;&lt;/p&gt;&lt;hr size=&quot;1&quot;&gt;&lt;p style=&quot;margin:0px;margin-left:4px;&quot;&gt;+ aggiungiVoce(voce)&lt;/p&gt;" style="verticalAlign=top;align=left;overflow=fill;fontSize=12;fontFamily=Helvetica;html=1;whiteSpace=wrap;" parent="1" vertex="1">
          <mxGeometry x="314.25" y="914" width="157.5" height="70" as="geometry" />
        </mxCell>
        <mxCell id="MMNpxaW_SGQHWkdZiyla-18" value="" style="shape=folder;fontStyle=1;spacingTop=10;tabWidth=130;tabHeight=30;tabPosition=left;html=1;whiteSpace=wrap;fillColor=none;strokeWidth=1;strokeColor=#FF9933;" parent="1" vertex="1">
          <mxGeometry x="508" y="194" width="170" height="80" as="geometry" />
        </mxCell>
        <mxCell id="MMNpxaW_SGQHWkdZiyla-19" value="ViewAggiungiCliente" style="text;html=1;align=center;verticalAlign=middle;resizable=0;points=[];autosize=1;strokeColor=none;fillColor=none;fontSize=11;fontStyle=1;fontColor=#FF9933;" parent="1" vertex="1">
          <mxGeometry x="508" y="194" width="130" height="30" as="geometry" />
        </mxCell>
        <mxCell id="MMNpxaW_SGQHWkdZiyla-20" value="" style="shape=folder;fontStyle=1;spacingTop=10;tabWidth=121;tabHeight=30;tabPosition=left;html=1;whiteSpace=wrap;fillColor=none;strokeColor=#FF9933;" parent="1" vertex="1">
          <mxGeometry x="138" y="199" width="165" height="85" as="geometry" />
        </mxCell>
        <mxCell id="MMNpxaW_SGQHWkdZiyla-21" value="ViewModificaCliente" style="text;html=1;align=center;verticalAlign=middle;resizable=0;points=[];autosize=1;strokeColor=none;fillColor=none;fontSize=11;fontStyle=1;fontColor=#FF9933;" parent="1" vertex="1">
          <mxGeometry x="133" y="199" width="130" height="30" as="geometry" />
        </mxCell>
        <mxCell id="MMNpxaW_SGQHWkdZiyla-22" value="Use" style="endArrow=open;endSize=12;dashed=1;html=1;rounded=0;exitX=0.5;exitY=1;exitDx=0;exitDy=0;entryX=0.507;entryY=0.004;entryDx=0;entryDy=0;entryPerimeter=0;" parent="1" source="MMNpxaW_SGQHWkdZiyla-12" target="MMNpxaW_SGQHWkdZiyla-16" edge="1">
          <mxGeometry x="-0.1884" y="-1" width="160" relative="1" as="geometry">
            <mxPoint x="723" y="677" as="sourcePoint" />
            <mxPoint x="811" y="984" as="targetPoint" />
            <mxPoint as="offset" />
          </mxGeometry>
        </mxCell>
        <mxCell id="MMNpxaW_SGQHWkdZiyla-23" value="" style="endArrow=open;endSize=16;endFill=0;html=1;rounded=0;exitX=0;exitY=0;exitDx=0;exitDy=66.25;exitPerimeter=0;entryX=1;entryY=0.605;entryDx=0;entryDy=0;entryPerimeter=0;" parent="1" source="MMNpxaW_SGQHWkdZiyla-2" target="MMNpxaW_SGQHWkdZiyla-20" edge="1">
          <mxGeometry width="160" relative="1" as="geometry">
            <mxPoint x="352" y="284" as="sourcePoint" />
            <mxPoint x="317" y="384" as="targetPoint" />
          </mxGeometry>
        </mxCell>
        <mxCell id="MMNpxaW_SGQHWkdZiyla-24" value="" style="endArrow=open;endSize=16;endFill=0;html=1;rounded=0;exitX=1.002;exitY=0.688;exitDx=0;exitDy=0;exitPerimeter=0;entryX=0;entryY=0;entryDx=0;entryDy=55;entryPerimeter=0;" parent="1" source="MMNpxaW_SGQHWkdZiyla-2" target="MMNpxaW_SGQHWkdZiyla-18" edge="1">
          <mxGeometry width="160" relative="1" as="geometry">
            <mxPoint x="480.25" y="207" as="sourcePoint" />
            <mxPoint x="435.25" y="174" as="targetPoint" />
          </mxGeometry>
        </mxCell>
        <mxCell id="MMNpxaW_SGQHWkdZiyla-2" value="" style="shape=folder;fontStyle=1;spacingTop=10;tabWidth=120;tabHeight=25;tabPosition=left;html=1;whiteSpace=wrap;strokeColor=#FF9933;strokeWidth=1;" parent="1" vertex="1">
          <mxGeometry x="329" y="184" width="150" height="95" as="geometry" />
        </mxCell>
        <mxCell id="MMNpxaW_SGQHWkdZiyla-3" value="HomeAmministratore" style="text;html=1;align=center;verticalAlign=middle;resizable=0;points=[];autosize=1;strokeColor=none;fillColor=none;fontSize=11;fontColor=#FF9933;fontStyle=1" parent="1" vertex="1">
          <mxGeometry x="319" y="184" width="140" height="30" as="geometry" />
        </mxCell>
        <mxCell id="8s_OfE6JyQyWX-u902Cv-2" value="Use" style="endArrow=open;endSize=12;dashed=1;html=1;rounded=0;exitX=0;exitY=0;exitDx=0;exitDy=57.5;exitPerimeter=0;entryX=0;entryY=0.75;entryDx=0;entryDy=0;" edge="1" parent="1" source="MMNpxaW_SGQHWkdZiyla-20" target="MMNpxaW_SGQHWkdZiyla-12">
          <mxGeometry x="-0.1884" y="-1" width="160" relative="1" as="geometry">
            <mxPoint x="80" y="350.5" as="sourcePoint" />
            <mxPoint x="223" y="657.5" as="targetPoint" />
            <Array as="points">
              <mxPoint x="70" y="257" />
              <mxPoint x="70" y="680" />
            </Array>
            <mxPoint as="offset" />
          </mxGeometry>
        </mxCell>
        <mxCell id="8s_OfE6JyQyWX-u902Cv-3" value="Use" style="endArrow=open;endSize=12;dashed=1;html=1;rounded=0;entryX=1;entryY=0.75;entryDx=0;entryDy=0;exitX=0;exitY=0;exitDx=170;exitDy=55;exitPerimeter=0;" edge="1" parent="1" source="MMNpxaW_SGQHWkdZiyla-18" target="MMNpxaW_SGQHWkdZiyla-12">
          <mxGeometry x="-0.1884" y="-1" width="160" relative="1" as="geometry">
            <mxPoint x="700" y="320" as="sourcePoint" />
            <mxPoint x="843" y="627" as="targetPoint" />
            <Array as="points">
              <mxPoint x="700" y="250" />
              <mxPoint x="700" y="679" />
            </Array>
            <mxPoint as="offset" />
          </mxGeometry>
        </mxCell>
      </root>
    </mxGraphModel>
  </diagram>
</mxfile>
